<svg xmlns="http://www.w3.org/2000/svg" xmlns:xlink="http://www.w3.org/1999/xlink" width="279.969" height="91">
    <defs>
        <rect id="a" width="279.969" height="91" />
        <filter id="b" width="279.969" height="91" filterUnits="objectBoundingBox">
            <feOffset in="SourceAlpha" result="shadowOffsetOuter1"/>
            <feGaussianBlur in="shadowOffsetOuter1" result="shadowBlurOuter1" />
            <feColorMatrix in="shadowBlurOuter1" values="0 0 0 0 0 0 0 0 0 0 0 0 0 0 0 0 0 0 0.1 0"/>
        </filter>
    </defs>
    <g fill="none" fill-rule="evenodd">
        <mask id="c" fill="#fff">
            <use xlink:href="#a"/>
        </mask>
        <use fill="#000" filter="url(#b)" xlink:href="#a"/>
        <use fill="#FFF" xlink:href="#a"/>
        <g mask="url(#c)">
            <path fill="#D4E8F4" d="M.015 229.537h279.97V.013H.015z"/>
            <path fill="#FFF" d="M.015 229.537h279.97V.013H.015z"/>
            <path fill="#CECEC8" d="M0 229.524h279.97V0H0z"/>
            <path fill="#96BBE7" d="M88.018 229.537l78.089-41.816c3.497-1.872 6.64-4.117 9.365-6.649a40.603 40.603 0 0 0 3.285-3.422 38.072 38.072 0 0 0 3.762-5.242c2.524-4.252 4.099-8.89 4.553-13.674 1.987-20.91 18.92-38.833 43.14-45.663l49.773-14.034v15.265l-44.03 12.416c-17.576 4.955-29.865 17.961-31.305 33.135-.502 5.28-2 10.506-4.399 15.433a49.073 49.073 0 0 1-3.014 5.31 49.552 49.552 0 0 1-2.249 3.171c-.107.14-.216.28-.325.42-4.87 6.205-11.368 11.577-18.905 15.614l-55.532 29.736H88.018zM164.805.013h115.18v29.666c-11.932 1.142-42.066 3.41-66.086.03-21.492-3.024-39.967-19.882-49.094-29.696z"/>
            <path fill="#E2E5E7" d="M38.705 63.886l45.089 20.447 2.79-1.416h.002l84.583-42.905-23.286-31.405-109.178 55.28zm-8.023 4.063L.015 83.476v-7.923l22.412-11.348L.015 54.043v-7.701L30.45 60.143 143.61 2.847l-2.1-2.834h9.608l28.326 38.202h100.54v6.712H177.109l-25.077 12.72 35.765 48.36 92.189-28.19v7.185l-90.33 27.62-21.474 55.403-2.466 1.315-3.592 1.915-.26.14.201.032 37.07 5.99 80.85 13.069v6.868l-84.926-13.726-19.088-3.085-23.788-3.845-.205-.033-.354.189-98.151 52.33H38.409l66.549-35.482-60.302-81.59-44.64 22.644v-7.927l74.873-37.98.847-.429.042-.022-45.096-20.45zm113.38 104.903l-61.1-80.17-.078.04-.871.442-30.358 15.399 60.206 81.459 32.202-17.17zm6.893-3.674l10.283-5.483 20.49-52.862-36.705-49.63-55.07 27.934 61.002 80.04zM.015 24.235L47.744.013h15.685L.015 32.196v-7.96z"/>
            <path fill="#A2C089" d="M.015.013h27.178L.015 13.805V.013zm0 150.126l21-10.65c2.593-1.316 5.783-1.56 8.626-.662 8.128 2.567 15.39 6.504 21.381 11.474 5.992 4.972 10.712 10.977 13.754 17.68 2.54 5.595 3.83 11.504 3.83 17.44 0 2.28-.191 4.563-.573 6.835l-1.29 7.662c-.386 2.298-1.966 4.345-4.33 5.614l-44.769 24.005H.015v-79.398zm181.136-95.663h82.905c1.174 0 2.124.778 2.124 1.738v14.93c0 .733-.564 1.389-1.409 1.636l-71.29 20.85c-.945.277-1.998-.025-2.524-.725L168.14 62.562c-.622-.827-.295-1.91.725-2.407l11.202-5.436a2.48 2.48 0 0 1 1.084-.243zm53.97 175.06l1.282-5.438c3.211-13.62 19.363-22.54 36.075-19.922l7.507 1.176v24.185H235.12z"/>
            <path fill="#BBBBB7" d="M167.154 118.594l-9.54 24.672c-1.435 3.713-7.528 4.306-9.98.972l-35.068-47.683c-2.445-3.325-1.205-7.645 2.79-9.723l17.24-8.967c4.122-2.143 9.585-1.083 12.1 2.351l21.08 28.769c2.12 2.892 2.621 6.392 1.378 9.609zm-43.79-62.575c-.884.444-2.036.212-2.574-.518l-12.224-16.607c-.538-.73-.256-1.681.628-2.124l34.07-17.082c.884-.442 2.036-.21 2.573.519l12.225 16.608c.536.73.255 1.68-.629 2.123l-34.07 17.081zm-43.207-4.09l.017.024 18.635-9.296.008.01c.85-.425 1.959-.202 2.477.496l12.345 16.69c.517.699.246 1.61-.605 2.034l-7.85 3.916c-.85.424-1.958.202-2.475-.497l-3.004-4.06c-.517-.699-1.626-.922-2.477-.497l-6.164 3.074c-.85.425-1.121 1.336-.605 2.035l2.979 4.026c.517.699.246 1.61-.605 2.034l-7.85 3.916c-.85.424-1.958.202-2.475-.497l-12.346-16.69c-.517-.698-.246-1.609.605-2.033l9.39-4.684zm33.902-43.56c.54.729.256 1.678-.632 2.12L82.361 25.96c-.888.442-2.045.21-2.585-.517l-4.858-6.555c-.538-.728-.256-1.677.632-2.12l31.066-15.469c.888-.442 2.046-.21 2.586.518l4.857 6.553zm-48.63-2.54c-.54-.725-.258-1.672.63-2.112L73.53.013h25.274l-25.93 12.861c-.889.441-2.047.21-2.587-.516L65.43 5.83zm-33.947 45.24c-.884.442-2.036.21-2.573-.518L16.68 33.957c-.538-.729-.256-1.678.628-2.121l38.379-19.22c.885-.443 2.037-.212 2.575.517L70.49 29.727c.536.728.255 1.678-.63 2.121l-38.379 19.22zM.015 91.297l28.016-13.963c.887-.441 2.044-.21 2.582.517L42.88 94.418c.54.727.257 1.675-.63 2.118L1.49 116.85c-.46.229-.993.277-1.475.167v-25.72zm194.124 138.24l4.424-18.942c.245-1.05 1.478-1.737 2.753-1.535l27.152 4.294c1.274.201 2.11 1.215 1.864 2.265l-3.25 13.918H194.14zm9.25-25.787c-1.281-.2-2.12-1.198-1.874-2.231l1.55-6.509c.247-1.034 1.484-1.71 2.764-1.512l26.944 4.18c1.28.198 2.119 1.197 1.873 2.23l-1.55 6.51c-.246 1.033-1.483 1.71-2.764 1.511l-26.944-4.18zm55.205-26.731c-1.272-.2-2.107-1.205-1.861-2.244l3.639-15.475c.244-1.04 1.475-1.721 2.746-1.52l16.867 2.648v19.95l-21.39-3.359zm-11.643-27.268c-1.275-.199-2.112-1.203-1.866-2.24l3.649-15.446c.246-1.037 1.479-1.718 2.755-1.518l28.496 4.455v19.913l-33.034-5.164zm-29.774 20.088c-1.27-.2-2.101-1.21-1.858-2.255l1.933-8.276c.244-1.045 1.472-1.73 2.741-1.529l26.169 4.138c1.27.202 2.101 1.211 1.858 2.257l-1.933 8.274c-.244 1.046-1.472 1.73-2.741 1.53l-26.169-4.139zM76.712 125.33c-.675-.913-.318-2.1.797-2.651L88.974 117c1.115-.552 2.565-.26 3.24.653l20.915 28.3c.674.912.318 2.1-.798 2.652l-11.465 5.678c-1.114.552-2.564.26-3.238-.652l-20.916-28.302zm26.327 35.723c-.7-.946-.33-2.176.827-2.748l11.26-5.575c1.155-.572 2.66-.27 3.358.676l8.78 11.873c2.58 3.49 1.215 8.031-3.051 10.142-4.265 2.112-9.814.994-12.395-2.495l-8.78-11.873zm-37.974-50.986c-.676-.906-.318-2.085.8-2.633l11.505-5.643c1.118-.548 2.574-.259 3.25.649l5.33 7.142c.677.906.319 2.085-.8 2.634l-11.504 5.642c-1.118.549-2.574.258-3.25-.648l-5.33-7.143zm109.662 119.47l5.045-21.766c.244-1.053 1.47-1.741 2.739-1.54l5.848.932c1.268.203 2.1 1.22 1.855 2.272l-4.66 20.103h-10.827z"/>
        </g>
    </g>
</svg>
