<?xml version="1.0" encoding="utf-8"?>
<!-- Generator: Adobe Illustrator 23.0.1, SVG Export Plug-In . SVG Version: 6.00 Build 0)  -->
<svg version="1.1" id="Layer_2" xmlns="http://www.w3.org/2000/svg" xmlns:xlink="http://www.w3.org/1999/xlink" x="0px" y="0px"
	 viewBox="0 0 285 285" style="enable-background:new 0 0 285 285;" xml:space="preserve">
<style type="text/css">
	.st0{fill:#0A438B;}
</style>
<path class="st0" d="M250,0H35C15.67,0,0,15.67,0,35v215c0,19.33,15.67,35,35,35h215c19.33,0,35-15.67,35-35V35
	C285,15.67,269.33,0,250,0z M187.29,147.27c-0.83,19.08-7.19,28.29-12.84,33.18c-20.03,17.33-53.92-0.02-70.85,18.43
	c-5.81,6.33-7.31,14.37-7.73,19.83c0.21,3.93-2.52,6.83-4.91,6.91c-2.59,0.09-5.79-3.09-5.26-7.46c-0.25-8.64-0.22-20.07,0.92-31.81
	c0.33-3.39,0.91-7.44,3.02-12.16c0.48-1.08,2.92-6.39,8.27-11.63c1.79-1.75,4.51-4.37,8.8-6.47c3.14-1.54,6.15-2.32,9.67-2.85
	c11.72-1.8,26.15-0.45,30.44,0c1.7,0.76,2.81,2.44,2.83,4.3c0.01,1.84-1.05,3.53-2.72,4.34c-7.21,0.05-14.42,0.1-21.63,0.15
	c-2.95,0.02-9.39,0.49-15.7,4.7c-11.27,7.53-12.47,20.6-12.6,22.42c5.64-4.85,10.88-7.28,14.72-8.6c11.97-4.13,18.19-0.22,36.98-3
	c8.68-1.28,13.1-1.98,17.17-4.86c10.85-7.67,11.61-23.18,11.62-28.91c0.94-2.67,3.38-4.29,5.54-4.06
	C185.83,140.02,188.36,143.45,187.29,147.27z M186.5,98.06c-0.21,2.18-0.56,4.7-1.36,7.55c-0.67,2.36-1.4,4.08-1.64,4.64
	c-0.42,0.96-2.32,5.21-6.66,9.94c-2.61,2.84-6.78,7.39-13.59,9.69c-3.06,1.03-5.55,1.24-7.5,1.37c-5.22,0.36-14.78,0.75-29.06,0
	c-1.7-0.77-2.8-2.45-2.81-4.31c-0.02-1.85,1.03-3.55,2.7-4.35c7.16-0.05,14.32-0.1,21.48-0.15c2.93-0.02,9.34-0.5,15.6-4.72
	c11.21-7.55,12.39-20.65,12.53-22.47c-5.61,4.86-10.81,7.3-14.63,8.63c-11.89,4.13-18.08,0.21-36.75,3
	c-8.62,1.28-13.01,1.98-17.06,4.87c-10.77,7.68-11.53,23.24-11.54,28.98c-0.94,2.67-3.36,4.3-5.5,4.07c-2.79-0.3-5.3-3.74-4.24-7.57
	c0.82-19.12,7.14-28.36,12.76-33.26c19.9-17.37,53.58,0.02,70.39-18.47c5.78-6.35,7.28-14.41,7.69-19.88
	c-0.2-3.94,2.51-6.85,4.88-6.93c2.57-0.09,5.75,3.11,5.23,7.49C187.66,74.83,187.63,86.29,186.5,98.06z"/>
</svg>
